<svg xmlns="http://www.w3.org/2000/svg" viewBox="0 0 40.47 40.47"><defs><style>.cls-1{fill:#565656;}</style></defs><title>arroba</title><g id="Layer_2" data-name="Layer 2"><g id="layout_pb"><path class="cls-1" d="M20.32,16.6a3.56,3.56,0,1,0,3.55,3.56A3.56,3.56,0,0,0,20.32,16.6Z"/><path class="cls-1" d="M20.16,0a20.24,20.24,0,0,0,0,40.47A20.45,20.45,0,0,0,40.47,20.16,20.31,20.31,0,0,0,20.16,0Zm8.38,26a4.65,4.65,0,0,1-3.79-2,5.75,5.75,0,0,1-4.32,2,5.8,5.8,0,0,1,0-11.6,5.74,5.74,0,0,1,3.48,1.19v0a1.16,1.16,0,1,1,2.31,0v5.8a2.32,2.32,0,0,0,4.64,0c0-7.76-5.13-11.6-10.43-11.6a10.44,10.44,0,1,0,0,20.87,10.29,10.29,0,0,0,6.34-2.15,1.16,1.16,0,0,1,1.41,1.84,12.62,12.62,0,0,1-7.75,2.63,12.76,12.76,0,1,1,0-25.51c6.41,0,12.75,4.73,12.75,13.92A4.64,4.64,0,0,1,28.54,26Z"/></g></g></svg>