<svg xmlns="http://www.w3.org/2000/svg" viewBox="0 0 36.14 36.14"><defs><style>.cls-1{fill:#5b5b5b;}</style></defs><title>edit</title><g id="Layer_2" data-name="Layer 2"><g id="layout_pb"><path class="cls-1" d="M32,1.45a5,5,0,0,0-7,0L23.2,3.22,4.46,22l0,0s0,0,0,0l-.07.09s0,0,0,0l-.05.08,0,0,0,.08s0,0,0,0L.05,34.84a1,1,0,0,0,.24,1,1,1,0,0,0,.71.29,1.19,1.19,0,0,0,.32,0l12.49-4.17h0l.09,0h0l.1-.06.09-.07,0,0s0,0,0,0l20.5-20.5a5,5,0,0,0,0-7ZM13.49,29.58,6.57,22.66,23.9,5.33l6.92,6.93ZM5.59,24.5l6.05,6.05-9.08,3ZM33.28,9.78l-1.05,1.06L25.31,3.92l1.06-1.06a3,3,0,0,1,4.22,0l2.7,2.7A3,3,0,0,1,33.28,9.78Z"/></g></g></svg>