<svg xmlns="http://www.w3.org/2000/svg" viewBox="0 0 40.47 40.47"><defs><style>.cls-1{fill:#565656;}</style></defs><title>post</title><g id="Layer_2" data-name="Layer 2"><g id="layout_pb"><g id="local"><path class="cls-1" d="M9.45,16.6c-.64-.65-1.28-1.3-1.93-1.94a2.61,2.61,0,0,0-.68-.59v5.67c1-1,1.8-1.84,2.68-2.69C9.75,16.82,9.58,16.73,9.45,16.6Zm7.09-3.18H7.43a1.73,1.73,0,0,0,.15.27C9,15,10.33,16.4,11.7,17.76c.25.25.39.27.64,0,1.33-1.35,2.69-2.68,4-4C16.45,13.66,16.62,13.61,16.54,13.42ZM14,17.61c-.2-.21-.3-.13-.46,0-.36.38-.74.74-1.1,1.12a.51.51,0,0,1-.84,0c-.38-.39-.77-.76-1.15-1.16-.15-.16-.25-.17-.42,0-.85.86-1.72,1.71-2.66,2.65h9.28C15.74,19.33,14.87,18.48,14,17.61Zm3.21,1.76V13.94c-.94,1-1.77,1.81-2.6,2.64-.22.21-.22.32,0,.54.8.78,1.58,1.59,2.35,2.4.06.05.07.12.16.09S17.23,19.46,17.23,19.37Zm-4.64,3.32c-.25,0-.31.18-.41.34-.7,1.11-1.41,2.22-2.11,3.34-.49.78-.39,1.11.49,1.42a6.37,6.37,0,0,0,3.72,0,4.55,4.55,0,0,0,2.82-1.45c.84-1.13,1.53-2.37,2.36-3.67Zm7.16-8.87a3.6,3.6,0,0,0-3.09-3.29,3.55,3.55,0,0,0-3.76,2.12h3.77A1.19,1.19,0,0,1,18,14q0,2.85,0,5.7a1.2,1.2,0,0,1-1.36,1.35c-1.24,0-2.48,0-3.72,0-.34,0-.43.12-.41.43s0,.48.38.47h6.45c.3,0,.41-.08.4-.39C19.75,19,19.78,16.4,19.75,13.82Zm6,12.64c0-1.09,0-2.17,0-3.26,0-.57-.28-.51-.64-.51s-.61,0-.6.49q0,3.29,0,6.57c0,.55.29.48.61.47s.65.13.63-.45C25.67,28.67,25.71,27.56,25.71,26.46Zm0-17.31a5.61,5.61,0,0,1,0-.58V7.64c0-.13,0-.25-.17-.31-.69-.22-1.05,0-1.05.77a8,8,0,0,1,0,1c-.07.52.1.69.65.68S25.78,9.61,25.71,9.15Zm3.23,22.66A1.81,1.81,0,0,0,27.38,31c-.76,0-1.51,0-2.26,0s-1.51,0-2.27,0a1.8,1.8,0,0,0-1.6.87c-.16.26-.17.37.19.37h7.3C29.15,32.21,29.1,32.06,28.94,31.81Zm2.72-17.72a3.62,3.62,0,0,0-3.75-3.61h-9a5.35,5.35,0,0,1,1.69,4.36c-.05,2.21,0,4.42,0,6.63,0,.37.1.48.48.48H31.24c.32,0,.44-.08.44-.41C31.66,19.05,31.71,16.57,31.66,14.09Zm0,0a3.62,3.62,0,0,0-3.75-3.61h-9a5.35,5.35,0,0,1,1.69,4.36c-.05,2.21,0,4.42,0,6.63,0,.37.1.48.48.48H31.24c.32,0,.44-.08.44-.41C31.66,19.05,31.71,16.57,31.66,14.09ZM27.38,31c-.76,0-1.51,0-2.26,0s-1.51,0-2.27,0a1.8,1.8,0,0,0-1.6.87c-.16.26-.17.37.19.37h7.3c.41,0,.36-.15.2-.4A1.81,1.81,0,0,0,27.38,31ZM25.13,9.76c.49,0,.65-.15.58-.61a5.61,5.61,0,0,1,0-.58V7.64c0-.13,0-.25-.17-.31-.69-.22-1.05,0-1.05.77a8,8,0,0,1,0,1C24.41,9.6,24.58,9.77,25.13,9.76Zm-.05,12.93c-.35,0-.61,0-.6.49q0,3.29,0,6.57c0,.55.29.48.61.47s.65.13.63-.45c0-1.1,0-2.21,0-3.31s0-2.17,0-3.26C25.75,22.63,25.44,22.69,25.08,22.69ZM16.66,10.53a3.55,3.55,0,0,0-3.76,2.12h3.77A1.19,1.19,0,0,1,18,14q0,2.85,0,5.7a1.2,1.2,0,0,1-1.36,1.35c-1.24,0-2.48,0-3.72,0-.34,0-.43.12-.41.43s0,.48.38.47h6.45c.3,0,.41-.08.4-.39,0-2.58,0-5.16,0-7.74A3.6,3.6,0,0,0,16.66,10.53ZM12.18,23c-.7,1.11-1.41,2.22-2.11,3.34-.49.78-.39,1.11.49,1.42a6.37,6.37,0,0,0,3.72,0,4.55,4.55,0,0,0,2.82-1.45c.84-1.13,1.53-2.37,2.36-3.67H12.59C12.34,22.69,12.28,22.87,12.18,23Zm2.45-6.45c-.22.21-.22.32,0,.54.8.78,1.58,1.59,2.35,2.4.06.05.07.12.16.09s.09-.15.09-.24V13.94C16.29,14.9,15.46,15.75,14.63,16.58Zm-.61,1c-.2-.21-.3-.13-.46,0-.36.38-.74.74-1.1,1.12a.51.51,0,0,1-.84,0c-.38-.39-.77-.76-1.15-1.16-.15-.16-.25-.17-.42,0-.85.86-1.72,1.71-2.66,2.65h9.28C15.74,19.33,14.87,18.48,14,17.61ZM7.43,13.42a1.73,1.73,0,0,0,.15.27C9,15,10.33,16.4,11.7,17.76c.25.25.39.27.64,0,1.33-1.35,2.69-2.68,4-4,.08-.08.25-.13.17-.32Zm2.09,3.63c.23-.23.06-.32-.07-.45-.64-.65-1.28-1.3-1.93-1.94a2.61,2.61,0,0,0-.68-.59v5.67C7.8,18.77,8.64,17.9,9.52,17.05ZM20.34,0A20.24,20.24,0,1,0,40.47,20.34,20.23,20.23,0,0,0,20.34,0ZM32.46,22.09c0,.45-.18.62-.62.62-1.63,0-3.26,0-4.89,0-.39,0-.48.11-.48.49q0,3.26,0,6.52c0,.45.13.57.56.53a2.57,2.57,0,0,1,2.38.92,2.35,2.35,0,0,1,.48.91c.2.73.06.9-.7.9H20.88c-.64,0-.75-.16-.59-.78a2.49,2.49,0,0,1,2.6-2c.82,0,.82,0,.82-.83,0-2.06,0-4.11,0-6.17,0-.45-.13-.55-.55-.53-.77,0-1.55,0-2.32,0a.76.76,0,0,0-.74.42c-.59,1-1.27,1.9-1.81,2.91a4.79,4.79,0,0,1-3,2.32,8.28,8.28,0,0,1-4.85.27c-1.13-.32-1.68-1.08-1.43-2A2.77,2.77,0,0,1,9.36,26c.7-1.14,1.4-2.28,2.14-3.38a2.16,2.16,0,0,0,.26-1.33c0-.32-.22-.26-.4-.26H7.46c-1,0-1.42-.44-1.42-1.41Q6,16.8,6,14a1.19,1.19,0,0,1,1.29-1.3c1.42,0,2.83,0,4.25,0a.58.58,0,0,0,.61-.39,4.24,4.24,0,0,1,4.08-2.53c2.27,0,4.54,0,6.8,0,.49,0,.7-.07.65-.62s0-1.35,0-2c0-.37.14-.53.52-.52.56,0,1.12,0,1.68,0s.6.18.59.59c0,.64,0,1.28,0,1.92s.09.71.65.68a5.45,5.45,0,0,1,1.8.06,4.29,4.29,0,0,1,3.5,4.24C32.51,16.74,32.45,19.42,32.46,22.09ZM27.91,10.48h-9a5.35,5.35,0,0,1,1.69,4.36c-.05,2.21,0,4.42,0,6.63,0,.37.1.48.48.48H31.24c.32,0,.44-.08.44-.41,0-2.49,0-5,0-7.45A3.62,3.62,0,0,0,27.91,10.48ZM22.85,31a1.8,1.8,0,0,0-1.6.87c-.16.26-.17.37.19.37h7.3c.41,0,.36-.15.2-.4A1.81,1.81,0,0,0,27.38,31c-.76,0-1.51,0-2.26,0S23.61,31,22.85,31ZM25.13,9.76c.49,0,.65-.15.58-.61a5.61,5.61,0,0,1,0-.58V7.64c0-.13,0-.25-.17-.31-.69-.22-1.05,0-1.05.77a8,8,0,0,1,0,1C24.41,9.6,24.58,9.77,25.13,9.76Zm-.05,12.93c-.35,0-.61,0-.6.49q0,3.29,0,6.57c0,.55.29.48.61.47s.65.13.63-.45c0-1.1,0-2.21,0-3.31s0-2.17,0-3.26C25.75,22.63,25.44,22.69,25.08,22.69ZM16.66,10.53a3.55,3.55,0,0,0-3.76,2.12h3.77A1.19,1.19,0,0,1,18,14q0,2.85,0,5.7a1.2,1.2,0,0,1-1.36,1.35c-1.24,0-2.48,0-3.72,0-.34,0-.43.12-.41.43s0,.48.38.47h6.45c.3,0,.41-.08.4-.39,0-2.58,0-5.16,0-7.74A3.6,3.6,0,0,0,16.66,10.53ZM12.18,23c-.7,1.11-1.41,2.22-2.11,3.34-.49.78-.39,1.11.49,1.42a6.37,6.37,0,0,0,3.72,0,4.55,4.55,0,0,0,2.82-1.45c.84-1.13,1.53-2.37,2.36-3.67H12.59C12.34,22.69,12.28,22.87,12.18,23Zm2.45-6.45c-.22.21-.22.32,0,.54.8.78,1.58,1.59,2.35,2.4.06.05.07.12.16.09s.09-.15.09-.24V13.94C16.29,14.9,15.46,15.75,14.63,16.58Zm-.61,1c-.2-.21-.3-.13-.46,0-.36.38-.74.74-1.1,1.12a.51.51,0,0,1-.84,0c-.38-.39-.77-.76-1.15-1.16-.15-.16-.25-.17-.42,0-.85.86-1.72,1.71-2.66,2.65h9.28C15.74,19.33,14.87,18.48,14,17.61Zm-2.32.15c.25.25.39.27.64,0,1.33-1.35,2.69-2.68,4-4,.08-.08.25-.13.17-.32H7.43a1.73,1.73,0,0,0,.15.27C9,15,10.33,16.4,11.7,17.76Zm-2.18-.71c.23-.23.06-.32-.07-.45-.64-.65-1.28-1.3-1.93-1.94a2.61,2.61,0,0,0-.68-.59v5.67C7.8,18.77,8.64,17.9,9.52,17.05Zm-.07-.45c-.64-.65-1.28-1.3-1.93-1.94a2.61,2.61,0,0,0-.68-.59v5.67c1-1,1.8-1.84,2.68-2.69C9.75,16.82,9.58,16.73,9.45,16.6Zm7.09-3.18H7.43a1.73,1.73,0,0,0,.15.27C9,15,10.33,16.4,11.7,17.76c.25.25.39.27.64,0,1.33-1.35,2.69-2.68,4-4C16.45,13.66,16.62,13.61,16.54,13.42ZM14,17.61c-.2-.21-.3-.13-.46,0-.36.38-.74.74-1.1,1.12a.51.51,0,0,1-.84,0c-.38-.39-.77-.76-1.15-1.16-.15-.16-.25-.17-.42,0-.85.86-1.72,1.71-2.66,2.65h9.28C15.74,19.33,14.87,18.48,14,17.61Zm3.21,1.76V13.94c-.94,1-1.77,1.81-2.6,2.64-.22.21-.22.32,0,.54.8.78,1.58,1.59,2.35,2.4.06.05.07.12.16.09S17.23,19.46,17.23,19.37Zm-4.64,3.32c-.25,0-.31.18-.41.34-.7,1.11-1.41,2.22-2.11,3.34-.49.78-.39,1.11.49,1.42a6.37,6.37,0,0,0,3.72,0,4.55,4.55,0,0,0,2.82-1.45c.84-1.13,1.53-2.37,2.36-3.67Zm7.16-8.87a3.6,3.6,0,0,0-3.09-3.29,3.55,3.55,0,0,0-3.76,2.12h3.77A1.19,1.19,0,0,1,18,14q0,2.85,0,5.7a1.2,1.2,0,0,1-1.36,1.35c-1.24,0-2.48,0-3.72,0-.34,0-.43.12-.41.43s0,.48.38.47h6.45c.3,0,.41-.08.4-.39C19.75,19,19.78,16.4,19.75,13.82Zm6,12.64c0-1.09,0-2.17,0-3.26,0-.57-.28-.51-.64-.51s-.61,0-.6.49q0,3.29,0,6.57c0,.55.29.48.61.47s.65.13.63-.45C25.67,28.67,25.71,27.56,25.71,26.46Zm0-17.31a5.61,5.61,0,0,1,0-.58V7.64c0-.13,0-.25-.17-.31-.69-.22-1.05,0-1.05.77a8,8,0,0,1,0,1c-.07.52.1.69.65.68S25.78,9.61,25.71,9.15Zm3.23,22.66A1.81,1.81,0,0,0,27.38,31c-.76,0-1.51,0-2.26,0s-1.51,0-2.27,0a1.8,1.8,0,0,0-1.6.87c-.16.26-.17.37.19.37h7.3C29.15,32.21,29.1,32.06,28.94,31.81Zm2.72-17.72a3.62,3.62,0,0,0-3.75-3.61h-9a5.35,5.35,0,0,1,1.69,4.36c-.05,2.21,0,4.42,0,6.63,0,.37.1.48.48.48H31.24c.32,0,.44-.08.44-.41C31.66,19.05,31.71,16.57,31.66,14.09Zm0,0a3.62,3.62,0,0,0-3.75-3.61h-9a5.35,5.35,0,0,1,1.69,4.36c-.05,2.21,0,4.42,0,6.63,0,.37.1.48.48.48H31.24c.32,0,.44-.08.44-.41C31.66,19.05,31.71,16.57,31.66,14.09ZM28.94,31.81A1.81,1.81,0,0,0,27.38,31c-.76,0-1.51,0-2.26,0s-1.51,0-2.27,0a1.8,1.8,0,0,0-1.6.87c-.16.26-.17.37.19.37h7.3C29.15,32.21,29.1,32.06,28.94,31.81ZM25.71,9.15a5.61,5.61,0,0,1,0-.58V7.64c0-.13,0-.25-.17-.31-.69-.22-1.05,0-1.05.77a8,8,0,0,1,0,1c-.07.52.1.69.65.68S25.78,9.61,25.71,9.15Zm0,17.31c0-1.09,0-2.17,0-3.26,0-.57-.28-.51-.64-.51s-.61,0-.6.49q0,3.29,0,6.57c0,.55.29.48.61.47s.65.13.63-.45C25.67,28.67,25.71,27.56,25.71,26.46Zm-6-12.64a3.6,3.6,0,0,0-3.09-3.29,3.55,3.55,0,0,0-3.76,2.12h3.77A1.19,1.19,0,0,1,18,14q0,2.85,0,5.7a1.2,1.2,0,0,1-1.36,1.35c-1.24,0-2.48,0-3.72,0-.34,0-.43.12-.41.43s0,.48.38.47h6.45c.3,0,.41-.08.4-.39C19.75,19,19.78,16.4,19.75,13.82Zm-7.16,8.87c-.25,0-.31.18-.41.34-.7,1.11-1.41,2.22-2.11,3.34-.49.78-.39,1.11.49,1.42a6.37,6.37,0,0,0,3.72,0,4.55,4.55,0,0,0,2.82-1.45c.84-1.13,1.53-2.37,2.36-3.67Zm4.64-3.32V13.94c-.94,1-1.77,1.81-2.6,2.64-.22.21-.22.32,0,.54.8.78,1.58,1.59,2.35,2.4.06.05.07.12.16.09S17.23,19.46,17.23,19.37ZM14,17.61c-.2-.21-.3-.13-.46,0-.36.38-.74.74-1.1,1.12a.51.51,0,0,1-.84,0c-.38-.39-.77-.76-1.15-1.16-.15-.16-.25-.17-.42,0-.85.86-1.72,1.71-2.66,2.65h9.28C15.74,19.33,14.87,18.48,14,17.61Zm2.52-4.19H7.43a1.73,1.73,0,0,0,.15.27C9,15,10.33,16.4,11.7,17.76c.25.25.39.27.64,0,1.33-1.35,2.69-2.68,4-4C16.45,13.66,16.62,13.61,16.54,13.42ZM9.45,16.6c-.64-.65-1.28-1.3-1.93-1.94a2.61,2.61,0,0,0-.68-.59v5.67c1-1,1.8-1.84,2.68-2.69C9.75,16.82,9.58,16.73,9.45,16.6Z"/></g></g></g></svg>