<svg xmlns="http://www.w3.org/2000/svg" viewBox="0 0 41.33 37.2"><defs><style>.cls-1{fill:#5b5b5b;}</style></defs><title>share</title><g id="Layer_2" data-name="Layer 2"><g id="layout_pb"><path class="cls-1" d="M34.1,22.73a7.21,7.21,0,0,0-6.28,3.71L14.27,21.23a7,7,0,0,0,.2-1.6,6.92,6.92,0,0,0-.34-2L28,11.17a7.22,7.22,0,1,0-1.18-3.94,6.93,6.93,0,0,0,.34,2L13.29,15.7a7.25,7.25,0,1,0,.22,7.45l13.55,5.21a7.08,7.08,0,0,0-.2,1.6,7.24,7.24,0,1,0,7.24-7.23Zm0-20.66a5.17,5.17,0,1,1-5.17,5.16A5.16,5.16,0,0,1,34.1,2.07ZM7.23,24.8a5.17,5.17,0,1,1,5.17-5.17A5.17,5.17,0,0,1,7.23,24.8ZM34.1,35.13A5.17,5.17,0,1,1,39.26,30,5.18,5.18,0,0,1,34.1,35.13Z"/></g></g></svg>