<svg xmlns="http://www.w3.org/2000/svg" viewBox="0 0 40.47 40.47"><defs><style>.cls-1{fill:#565656;}</style></defs><title>tell</title><g id="Layer_2" data-name="Layer 2"><g id="layout_pb"><path class="cls-1" d="M34.54,5.92a20.24,20.24,0,1,0,5.93,14.31A20.24,20.24,0,0,0,34.54,5.92ZM30.71,28.19h0l-1,1a5.37,5.37,0,0,1-5.09,1.46,17.82,17.82,0,0,1-5.21-2.33A24.2,24.2,0,0,1,15.27,25a24.39,24.39,0,0,1-3.07-3.72,18.79,18.79,0,0,1-2.3-4.67,5.39,5.39,0,0,1,1.35-5.51l1.2-1.2a.86.86,0,0,1,1.21,0h0l3.79,3.79a.85.85,0,0,1,0,1.21h0l-2.22,2.22A1.81,1.81,0,0,0,15,19.5a24.67,24.67,0,0,0,2.66,3.11,26,26,0,0,0,3.51,2.95,1.82,1.82,0,0,0,2.33-.2l2.16-2.19a.86.86,0,0,1,1.21,0h0L30.71,27A.86.86,0,0,1,30.71,28.19Z"/></g></g></svg>