<svg xmlns="http://www.w3.org/2000/svg" viewBox="0 0 40.47 40.47"><defs><style>.cls-1{fill:#565656;}</style></defs><title>wpp</title><g id="Layer_2" data-name="Layer 2"><g id="layout_pb"><path class="cls-1" d="M20.34,0A20.24,20.24,0,1,0,40.47,20.34,20.24,20.24,0,0,0,20.34,0Zm.27,31.94h0a12,12,0,0,1-5.78-1.5L8.39,32.09l1.75-6.26A12.12,12.12,0,1,1,32.78,19.9,12.12,12.12,0,0,1,20.61,31.94Z"/><path class="cls-1" d="M20.72,9.94a10.07,10.07,0,0,0-8.61,15.38l.24.38-1,3.71,3.82-1,.37.22a10,10,0,0,0,5.11,1.43h0a10.07,10.07,0,0,0,.1-20.14Zm5.85,14.32a3.14,3.14,0,0,1-2.05,1.43,4.25,4.25,0,0,1-1.9-.13,16,16,0,0,1-1.73-.65,13.41,13.41,0,0,1-5.14-4.59,5.87,5.87,0,0,1-1.22-3.14,3.33,3.33,0,0,1,1.07-2.51,1.1,1.1,0,0,1,.81-.38H17c.18,0,.43-.06.68.53s.84,2.1.92,2.25a.58.58,0,0,1,0,.53,9.11,9.11,0,0,1-.76,1c-.14.16-.31.31-.14.62a9.56,9.56,0,0,0,1.67,2.1,8.21,8.21,0,0,0,2.43,1.51c.3.16.48.13.66-.07s.76-.88,1-1.18.41-.25.68-.15,1.76.84,2.07,1,.5.23.57.35A2.44,2.44,0,0,1,26.57,24.26Z"/></g></g></svg>